<svg xmlns="http://www.w3.org/2000/svg" viewBox="0 0 35 35"><path d="M1 1h7v7h-7zM11 1h1v2h-1zM13 1h2v1h2v-1h1v3h-1v-1h-2v1h-3v-1h2v-1h-1zM20 1h2v2h-1v-1h-1zM27 1h7v7h-7zM2 2v5h5v-5zM19 2h1v1h1v1h-2zM23 2h1v2h2v1h-1v1h-1v-1h-1v-1h-1v-1h1zM28 2v5h5v-5zM3 3h3v3h-3zM9 3h2v1h-1v2h1v1h-1v1h1v-1h1v2h-1v2h1v-1h1v-1h3v1h-2v1h-1v1h1v1h-1v2h-1v2h2v1h-2v1h-1v-1h-2v-1h-1v-1h2v1h1v-2h-3v-1h4v-2h-2v-1h-1v-1h1v-1h-1zM29 3h3v3h-3zM11 4h1v1h-1zM15 4h1v1h-1zM18 4h1v1h-1zM21 4h1v2h-1zM12 5h3v1h-1v2h-1v-1h-1zM16 5h1v1h1v2h-1v-1h-1v1h-1v-2h1zM19 6h1v3h-1zM22 6h1v1h-1zM21 7h1v1h-1zM23 7h1v1h1v-1h1v2h-2v1h-2v1h2v3h-1v-1h-1v1h-1v1h-1v1h1v1h-2v-3h1v-1h1v-2h-1v-1h1v-1h1v-1h1zM1 9h1v1h1v-1h5v1h-2v1h-1v1h1v1h2v1h-1v1h-1v-1h-1v-1h-1v-2h-3zM18 9h1v1h-1zM27 9h5v2h1v2h-3v-1h1v-2h-3v1h1v2h1v1h-2v-2h-1zM17 10h1v1h-1zM24 10h2v1h-2zM33 10h1v1h-1zM7 11h2v2h-1v-1h-1zM16 11h1v1h-1zM18 11h2v2h-1v-1h-1zM15 12h1v1h-1zM17 12h1v1h-1zM26 12h1v1h-1zM3 13h1v2h-1zM18 13h1v1h-1zM33 13h1v2h-1v3h-1v-1h-1v1h-2v-1h1v-3h3zM1 14h1v1h-1zM15 14h1v1h-1zM17 14h1v2h-1v1h-1v-2h1zM27 14h1v1h-1zM4 15h2v3h-1v-1h-1v1h-1v-2h1zM7 15h1v1h-1zM14 15h1v1h-1zM23 15h1v1h-1zM28 15h1v2h-1zM22 16h1v1h2v2h-3v-1h-1v-1h1zM26 16h1v2h1v1h-1v1h-1zM1 17h1v1h-1zM7 17h1v1h-1zM18 17h1v1h-1zM2 18h1v1h-1zM4 18h1v1h-1zM14 18h1v1h-1zM17 18h1v1h-1zM20 18h1v1h-1zM33 18h1v1h-1zM1 19h1v1h-1zM3 19h1v1h1v3h-1v-1h-1zM7 19h1v1h-1zM9 19h1v1h-1zM16 19h1v2h-1zM19 19h1v1h-1zM21 19h1v1h-1zM29 19h4v1h1v1h-1v1h1v1h-1v1h-1v-1h-1v-1h1v-1h-1v-1h-1v1h1v1h-2zM6 20h1v1h1v1h-2zM8 20h1v1h-1zM10 20h4v1h-3v1h-1zM22 20h1v1h-1zM24 20h2v1h-2zM27 20h1v1h-1zM1 21h1v1h1v1h-1v3h-1zM18 21h1v1h-1zM21 21h1v1h-1zM23 21h1v1h-1zM26 21h1v1h1v2h-1v-1h-1v1h-1v-1h-1v-1h2zM8 22h1v1h-1zM12 22h1v1h-1zM17 22h1v1h-1zM19 22h2v1h-2zM22 22h1v1h-1zM3 23h1v2h-1zM5 23h1v1h-1zM7 23h1v1h-1zM10 23h2v2h-1v3h-1v-1h-1v-2h1zM16 23h1v1h-1zM21 23h1v1h1v1h-2zM30 23h1v1h1v1h2v2h-1v-1h-2v-1h-1zM15 24h1v2h-1v1h-1v-2h1zM17 24h1v1h-1zM19 24h1v1h-1zM24 24h1v1h1v-1h1v1h3v6h-1v1h-3v-1h2v-1h-3v-1h-1v1h1v2h-2v-1h-1v-1h1v-1h-1v-2h1v1h1v-1h1v-1h-1zM7 25h1v1h-1zM18 25h1v1h3v1h-4v1h-2v-1h1v-1h1zM12 26h1v1h-1zM26 26v3h3v-3zM1 27h7v7h-7zM13 27h1v1h-1zM27 27h1v1h-1zM32 27h1v1h1v3h-2v2h-1v1h-2v-2h2v-2h1v-1h-1v-1h1zM2 28v5h5v-5zM9 28h1v1h3v1h-2v1h-1v1h-1zM3 29h3v3h-3zM15 29h2v1h-2zM18 29h1v1h-1zM13 30h2v1h-1v1h-1zM17 30h1v2h-1v2h-1v-1h-1v1h-1v-2h1v-1h2zM19 30h2v1h-2zM11 32h2v2h-2zM21 32h2v1h-1v1h-1zM9 33h1v1h-1zM18 33h1v1h-1zM23 33h3v1h-3zM32 33h1v1h-1z"/></svg>